<svg id="Layer_1" data-name="Layer 1" xmlns="http://www.w3.org/2000/svg" width="77.8" height="16" viewBox="0 0 77.8 16">
  <title>arizona</title>
  <g>
    <path d="M6.6.4H9.4l6.7,15.3H12.3L11,12.5H5L3.7,15.8H0ZM7.9,4.9,6.1,9.6H9.9Z" style="fill: #eee"/>
    <path d="M17.2,5.2h3.3V6.9h0a4.66,4.66,0,0,1,1.2-1.5,3.45,3.45,0,0,1,1.8-.5h.6a.75.75,0,0,1,.5.1V8c-.2,0-.4-.1-.6-.1s-.5-.1-.7-.1a3.34,3.34,0,0,0-1.5.3,1.85,1.85,0,0,0-.8.7,3.58,3.58,0,0,0-.4,1.1,6.15,6.15,0,0,0-.1,1.4v4.4H17.2Z" style="fill: #eee"/>
    <path d="M25.8,1.9A1.61,1.61,0,0,1,26.4.6,1.76,1.76,0,0,1,27.7,0,1.61,1.61,0,0,1,29,.6a1.76,1.76,0,0,1,.6,1.3A1.61,1.61,0,0,1,29,3.2a1.76,1.76,0,0,1-1.3.6,1.61,1.61,0,0,1-1.3-.6A1.61,1.61,0,0,1,25.8,1.9Zm.3,3.3h3.3V15.7H26.1Z" style="fill: #eee"/>
    <path d="M31.3,12.5l5.5-4.7H31.5V5.2h9.1V8.3l-5.7,4.8h5.9v2.6H31.4V12.5Z" style="fill: #eee"/>
    <path d="M42.1,10.5a5.93,5.93,0,0,1,.5-2.3,4.34,4.34,0,0,1,1.2-1.7,7.61,7.61,0,0,1,1.9-1.2,6.81,6.81,0,0,1,4.6,0,7.61,7.61,0,0,1,1.9,1.2,4.82,4.82,0,0,1,1.2,1.7,5.56,5.56,0,0,1,.5,2.3,5.93,5.93,0,0,1-.5,2.3,4.34,4.34,0,0,1-1.2,1.7,5,5,0,0,1-1.9,1.1,6.81,6.81,0,0,1-4.6,0,7.24,7.24,0,0,1-1.9-1.1,6.57,6.57,0,0,1-1.2-1.7A5.56,5.56,0,0,1,42.1,10.5Zm3.3,0A2.42,2.42,0,0,0,48,13.1a2.35,2.35,0,0,0,1.9-.7,2.49,2.49,0,0,0,.7-1.9A2.42,2.42,0,0,0,48,7.9a2.42,2.42,0,0,0-2.6,2.6Z" style="fill: #eee"/>
    <path d="M55.8,5.2h3.1V6.6h0a2.65,2.65,0,0,1,.5-.6,1.79,1.79,0,0,1,.7-.5,3.55,3.55,0,0,1,.9-.4,3,3,0,0,1,1-.2,4,4,0,0,1,2,.4,3.18,3.18,0,0,1,1.2,1.1A3.82,3.82,0,0,1,65.8,8a12.31,12.31,0,0,1,.2,2v5.8H62.7V9.7a2.92,2.92,0,0,0-.2-.9,1.79,1.79,0,0,0-.5-.7,1.33,1.33,0,0,0-1-.3A2.51,2.51,0,0,0,60,8a1.72,1.72,0,0,0-.6.6,9.44,9.44,0,0,0-.3.9c0,.3-.1.7-.1,1v5.2H55.7V5.2Z" style="fill: #eee"/>
    <path d="M74.8,14.4h0a2.89,2.89,0,0,1-1.5,1.2,4.83,4.83,0,0,1-3.3.2,2.28,2.28,0,0,1-1.2-.6,3.92,3.92,0,0,1-.8-1,3.19,3.19,0,0,1-.3-1.4,3.34,3.34,0,0,1,.3-1.5,2.19,2.19,0,0,1,.9-1,5.17,5.17,0,0,1,1.3-.6,4,4,0,0,1,1.5-.3,8.6,8.6,0,0,1,1.6-.1h1.5a1.82,1.82,0,0,0-.6-1.4,2.46,2.46,0,0,0-1.5-.5,4,4,0,0,0-1.5.3,4.7,4.7,0,0,0-1.2.9L68.3,6.8a5.71,5.71,0,0,1,2.1-1.3,6.9,6.9,0,0,1,2.5-.4,5.75,5.75,0,0,1,2.4.4,3.27,3.27,0,0,1,1.5,1.1,4.47,4.47,0,0,1,.8,1.7,8.22,8.22,0,0,1,.2,2.3V16h-3ZM74,11.1h-.9a4.25,4.25,0,0,0-1.1.2,4.05,4.05,0,0,0-.9.5,1.23,1.23,0,0,0-.4.8,1.05,1.05,0,0,0,.5.9,1.93,1.93,0,0,0,1,.3,2.77,2.77,0,0,0,.9-.1,2,2,0,0,0,.8-.4l.6-.6a2,2,0,0,0,.2-.9v-.7Z" style="fill: #eee"/>
  </g>
</svg>
