<svg id="Layer_1" data-name="Layer 1" xmlns="http://www.w3.org/2000/svg" width="88.5" height="16" viewBox="0 0 88.5 16">
  <title>colorado</title>
  <g>
    <path d="M10.4,4.8a4.7,4.7,0,0,0-1.2-.9,4.15,4.15,0,0,0-1.6-.3,4.67,4.67,0,0,0-1.7.3,3.25,3.25,0,0,0-1.3,1,6,6,0,0,0-.9,1.5,5.85,5.85,0,0,0-.4,1.9,5.82,5.82,0,0,0,.3,1.9,3.77,3.77,0,0,0,.9,1.5,6.42,6.42,0,0,0,1.3,1,4.19,4.19,0,0,0,1.6.4,3.66,3.66,0,0,0,1.8-.4,4.89,4.89,0,0,0,1.3-1.2l2.7,2a5,5,0,0,1-2.4,1.9,7.53,7.53,0,0,1-2.9.6,11.27,11.27,0,0,1-3.2-.5A7,7,0,0,1,2.2,14,6.33,6.33,0,0,1,.6,11.6,8.29,8.29,0,0,1,0,8.4,8.29,8.29,0,0,1,.6,5.2,6,6,0,0,1,2.2,2.8,5.65,5.65,0,0,1,4.7,1.2,8.28,8.28,0,0,1,7.9.7,6.15,6.15,0,0,1,9.2.8a6.47,6.47,0,0,1,1.3.4,8.26,8.26,0,0,1,1.3.7,5.24,5.24,0,0,1,1.1,1Z" style="fill: #eee"/>
    <path d="M14.2,10.6a5.38,5.38,0,0,1,.4-2.2,5.23,5.23,0,0,1,1.2-1.7,5.44,5.44,0,0,1,1.8-1.1,7.8,7.8,0,0,1,2.2-.4,5.38,5.38,0,0,1,2.2.4,4.18,4.18,0,0,1,1.8,1.1A5.23,5.23,0,0,1,25,8.4a5.09,5.09,0,0,1,.4,2.2,5.38,5.38,0,0,1-.4,2.2,6.57,6.57,0,0,1-1.2,1.7A5.44,5.44,0,0,1,22,15.6a7.8,7.8,0,0,1-2.2.4,5.38,5.38,0,0,1-2.2-.4,4.18,4.18,0,0,1-1.8-1.1,5.23,5.23,0,0,1-1.2-1.7A5.38,5.38,0,0,1,14.2,10.6Zm3.1,0a2.14,2.14,0,0,0,.7,1.8,2.14,2.14,0,0,0,1.8.7,2.14,2.14,0,0,0,1.8-.7,2.87,2.87,0,0,0,.7-1.8,2.14,2.14,0,0,0-.7-1.8,2.14,2.14,0,0,0-1.8-.7,2.14,2.14,0,0,0-1.8.7A2.14,2.14,0,0,0,17.3,10.6Z" style="fill: #eee"/>
    <path d="M27.2,0h3.1V15.6H27.2Z" style="fill: #eee"/>
    <path d="M32.2,10.6a5.38,5.38,0,0,1,.4-2.2,6.57,6.57,0,0,1,1.2-1.7,5.44,5.44,0,0,1,1.8-1.1,7.8,7.8,0,0,1,2.2-.4,5.38,5.38,0,0,1,2.2.4,4.18,4.18,0,0,1,1.8,1.1A5.23,5.23,0,0,1,43,8.4a5.09,5.09,0,0,1,.4,2.2,5.38,5.38,0,0,1-.4,2.2,6.57,6.57,0,0,1-1.2,1.7A5.44,5.44,0,0,1,40,15.6a7.8,7.8,0,0,1-2.2.4,5.38,5.38,0,0,1-2.2-.4,4.18,4.18,0,0,1-1.8-1.1,5.23,5.23,0,0,1-1.2-1.7A5.38,5.38,0,0,1,32.2,10.6Zm3.1,0a2.14,2.14,0,0,0,.7,1.8,2.14,2.14,0,0,0,1.8.7,2.14,2.14,0,0,0,1.8-.7,2.87,2.87,0,0,0,.7-1.8,2.14,2.14,0,0,0-.7-1.8,2.14,2.14,0,0,0-1.8-.7,2.14,2.14,0,0,0-1.8.7A2.14,2.14,0,0,0,35.3,10.6Z" style="fill: #eee"/>
    <path d="M45.1,5.6h3.1V7.2h0a3.33,3.33,0,0,1,1.2-1.4,3.1,3.1,0,0,1,1.7-.5h.5a.9.9,0,0,1,.5.1V8.2a6.37,6.37,0,0,0-.7-.2c-.2,0-.4-.1-.7-.1a4.64,4.64,0,0,0-1.4.2,2.7,2.7,0,0,0-.8.7,3.58,3.58,0,0,0-.4,1.1,6.15,6.15,0,0,0-.1,1.4v4.2H44.9V5.6Z" style="fill: #eee"/>
    <path d="M59.9,14.4h0a4.07,4.07,0,0,1-1.4,1.2,5.84,5.84,0,0,1-1.8.4,6.75,6.75,0,0,1-1.4-.2,2,2,0,0,1-1.1-.6,3.92,3.92,0,0,1-.8-1,2.77,2.77,0,0,1-.3-1.3,3.34,3.34,0,0,1,.3-1.5,2.84,2.84,0,0,1,.9-1,3.1,3.1,0,0,1,1.3-.6,8,8,0,0,1,1.5-.3,7.57,7.57,0,0,1,1.5-.1H60a1.49,1.49,0,0,0-.6-1.3A2.39,2.39,0,0,0,58,7.6a3.19,3.19,0,0,0-1.4.3,3.13,3.13,0,0,0-1.1.9L53.8,7.1a8.17,8.17,0,0,1,2-1.2,6.72,6.72,0,0,1,2.4-.4,6.46,6.46,0,0,1,2.2.3,3,3,0,0,1,1.4,1,2.93,2.93,0,0,1,.7,1.6,13.79,13.79,0,0,1,.2,2.2v5.1H59.8V14.4Zm-.8-3.2h-.9a3,3,0,0,0-1,.2,2,2,0,0,0-.8.4,1.14,1.14,0,0,0-.3.8.89.89,0,0,0,.5.8,1.69,1.69,0,0,0,1,.3,2.77,2.77,0,0,0,.9-.1,3,3,0,0,0,.8-.4c.2-.2.4-.3.5-.6a1.88,1.88,0,0,0,.2-.8v-.7h-.9Z" style="fill: #eee"/>
    <path d="M75.2,15.6H72.3V14.3h0a1.21,1.21,0,0,1-.5.5,1.79,1.79,0,0,1-.7.5,3.55,3.55,0,0,1-.9.4,3.4,3.4,0,0,1-1,.1,4.48,4.48,0,0,1-2-.4,5.72,5.72,0,0,1-1.6-1.1,3.91,3.91,0,0,1-1-1.6,6.54,6.54,0,0,1-.4-2.1,6.45,6.45,0,0,1,.3-2,8.64,8.64,0,0,1,1-1.6,5.26,5.26,0,0,1,1.4-1.2,4.06,4.06,0,0,1,1.9-.4,5.23,5.23,0,0,1,1.8.3,2.81,2.81,0,0,1,1.4,1h0V0h3.1V15.6Zm-2.9-5a2.14,2.14,0,0,0-.7-1.8,2.66,2.66,0,0,0-3.6,0,2.87,2.87,0,0,0-.7,1.8,2.14,2.14,0,0,0,.7,1.8,2.66,2.66,0,0,0,3.6,0A2.14,2.14,0,0,0,72.3,10.6Z" style="fill: #eee"/>
    <path d="M77.3,10.6a5.38,5.38,0,0,1,.4-2.2,5.23,5.23,0,0,1,1.2-1.7,7.68,7.68,0,0,1,1.8-1,7.8,7.8,0,0,1,2.2-.4,5.38,5.38,0,0,1,2.2.4,4.18,4.18,0,0,1,1.8,1.1,5.23,5.23,0,0,1,1.2,1.7,5.09,5.09,0,0,1,.4,2.2,5.38,5.38,0,0,1-.4,2.2,6.57,6.57,0,0,1-1.2,1.7,5.44,5.44,0,0,1-1.8,1.1,7.8,7.8,0,0,1-2.2.4,5.38,5.38,0,0,1-2.2-.4,4.18,4.18,0,0,1-1.8-1.1,5.23,5.23,0,0,1-1.2-1.7A5.87,5.87,0,0,1,77.3,10.6Zm3.1,0a2.14,2.14,0,0,0,.7,1.8,2.66,2.66,0,0,0,3.6,0,2.87,2.87,0,0,0,.7-1.8,2.14,2.14,0,0,0-.7-1.8,2.66,2.66,0,0,0-3.6,0A2.14,2.14,0,0,0,80.4,10.6Z" style="fill: #eee"/>
  </g>
</svg>
