<svg id="Layer_1" data-name="Layer 1" xmlns="http://www.w3.org/2000/svg" width="126.5" height="16" viewBox="0 0 126.5 16">
  <title>newmexico</title>
  <g>
    <path d="M0,.4H4.6l6.5,10.7h0V.4h3.4V15.7H10.1L3.4,4.8h0V15.7H0Z" style="fill: #eee"/>
    <path d="M27.2,13.9a4.26,4.26,0,0,1-2,1.5,5.34,5.34,0,0,1-2.5.5,5.87,5.87,0,0,1-2.3-.4,7.24,7.24,0,0,1-1.9-1.1,6.57,6.57,0,0,1-1.2-1.7,5.56,5.56,0,0,1-.5-2.3,5.93,5.93,0,0,1,.5-2.3,4.34,4.34,0,0,1,1.2-1.7,4,4,0,0,1,1.9-1.1,5.87,5.87,0,0,1,2.3-.4,4.21,4.21,0,0,1,2,.4,4.34,4.34,0,0,1,1.7,1.2,5.85,5.85,0,0,1,1,1.7,8,8,0,0,1,.3,2.3v1H20.2A2.75,2.75,0,0,0,21,13a2.27,2.27,0,0,0,1.6.6,2.3,2.3,0,0,0,1.4-.4,2.84,2.84,0,0,0,1-.9ZM24.5,9.3A2.39,2.39,0,0,0,24,7.9a1.89,1.89,0,0,0-1.5-.6,3,3,0,0,0-1,.2,4.35,4.35,0,0,0-.7.4c-.2.2-.3.4-.5.6a1.85,1.85,0,0,0-.2.7h4.4Z" style="fill: #eee"/>
    <path d="M28.4,5.2h3.5L34,11.8h0l1.8-6.6h3.6l2,6.6h0l2-6.6h3.3L43,15.7H39.8l-2.2-7h0l-2,7H32.3Z" style="fill: #eee"/>
    <path d="M54.6.4h5.1l3.5,10h0L66.8.4h5.1V15.7H68.5V4h0l-4,11.8H61.9L58,4h0V15.8H54.6Z" style="fill: #eee"/>
    <path d="M84.6,13.9a4.26,4.26,0,0,1-2,1.5,5.33,5.33,0,0,1-2.4.6,5.87,5.87,0,0,1-2.3-.4A7.24,7.24,0,0,1,76,14.5a6.57,6.57,0,0,1-1.2-1.7,5.56,5.56,0,0,1-.5-2.3,5.93,5.93,0,0,1,.5-2.3A4.34,4.34,0,0,1,76,6.5a4,4,0,0,1,1.9-1.1A5.87,5.87,0,0,1,80.2,5a4.21,4.21,0,0,1,2,.4,5.72,5.72,0,0,1,1.6,1.1,5.85,5.85,0,0,1,1,1.7,8,8,0,0,1,.3,2.3v1H77.6a2.75,2.75,0,0,0,.8,1.5,2.27,2.27,0,0,0,1.6.6,2.3,2.3,0,0,0,1.4-.4,4.3,4.3,0,0,0,1-.9ZM81.9,9.3a2.39,2.39,0,0,0-.5-1.4,1.89,1.89,0,0,0-1.5-.6,3,3,0,0,0-1,.2,4.35,4.35,0,0,0-.7.4c-.2.2-.3.4-.5.6a1.85,1.85,0,0,0-.2.7h4.4Z" style="fill: #eee"/>
    <path d="M89.9,10.1,86.4,5.2h3.8l1.9,2.9,1.8-2.9h3.6l-3.4,4.9,4.1,5.6H94.4L92,12.2l-2.5,3.5H85.7Z" style="fill: #eee"/>
    <path d="M98.9,1.9A1.61,1.61,0,0,1,99.5.6a1.76,1.76,0,0,1,1.3-.6,1.61,1.61,0,0,1,1.3.6,1.76,1.76,0,0,1,.6,1.3,1.61,1.61,0,0,1-.6,1.3,1.76,1.76,0,0,1-1.3.6,1.61,1.61,0,0,1-1.3-.6A1.61,1.61,0,0,1,98.9,1.9Zm.3,3.3h3.3V15.7H99.2Z" style="fill: #eee"/>
    <path d="M111.9,8.6a4.35,4.35,0,0,0-.7-.6,1.49,1.49,0,0,0-.9-.2,2.35,2.35,0,0,0-1.9.7,2.49,2.49,0,0,0-.7,1.9,2.42,2.42,0,0,0,2.6,2.6,2,2,0,0,0,.9-.2,2,2,0,0,0,.7-.6l2.1,2.3a4.18,4.18,0,0,1-1.8,1.1,6.93,6.93,0,0,1-2,.3,5.87,5.87,0,0,1-2.3-.4,7.24,7.24,0,0,1-1.9-1.1,6.57,6.57,0,0,1-1.2-1.7,5.56,5.56,0,0,1-.5-2.3,5.93,5.93,0,0,1,.5-2.3A4.34,4.34,0,0,1,106,6.4a4,4,0,0,1,1.9-1.1,5.87,5.87,0,0,1,2.3-.4,7.47,7.47,0,0,1,2,.3A4.18,4.18,0,0,1,114,6.3Z" style="fill: #eee"/>
    <path d="M114.8,10.5a5.93,5.93,0,0,1,.5-2.3,4.34,4.34,0,0,1,1.2-1.7,4,4,0,0,1,1.9-1.1,6.81,6.81,0,0,1,4.6,0,7.24,7.24,0,0,1,1.9,1.1,4.82,4.82,0,0,1,1.2,1.7,5.56,5.56,0,0,1,.5,2.3,5.93,5.93,0,0,1-.5,2.3,4.34,4.34,0,0,1-1.2,1.7,5,5,0,0,1-1.9,1.1,6.81,6.81,0,0,1-4.6,0,7.24,7.24,0,0,1-1.9-1.1,6.57,6.57,0,0,1-1.2-1.7A5.93,5.93,0,0,1,114.8,10.5Zm3.3,0a2.42,2.42,0,0,0,2.6,2.6,2.35,2.35,0,0,0,1.9-.7,2.49,2.49,0,0,0,.7-1.9,2.42,2.42,0,0,0-2.6-2.6,2.42,2.42,0,0,0-2.6,2.6Z" style="fill: #eee"/>
  </g>
</svg>
