<svg id="Layer_1" data-name="Layer 1" xmlns="http://www.w3.org/2000/svg" width="44.1" height="16" viewBox="0 0 44.1 16">
  <title>utah</title>
  <g>
    <path d="M12.3,10a6.05,6.05,0,0,1-.4,2.4,6.15,6.15,0,0,1-1.2,1.9,6.41,6.41,0,0,1-1.9,1.3,9.47,9.47,0,0,1-2.6.4,7.63,7.63,0,0,1-2.7-.5,4.31,4.31,0,0,1-1.9-1.3A7.61,7.61,0,0,1,.4,12.3,5.27,5.27,0,0,1,0,10V1H3.2V9.9a5.07,5.07,0,0,0,.2,1.3,2.07,2.07,0,0,0,.6,1,5.5,5.5,0,0,0,.9.7c.5,0,.9.1,1.3.1a5,5,0,0,0,1.2-.2,2.18,2.18,0,0,0,.9-.7,2.07,2.07,0,0,0,.6-1,5.07,5.07,0,0,0,.2-1.3V1h3.2Z" style="fill: #eee"/>
    <path d="M21.8,8.1H19v4.1a1.42,1.42,0,0,0,.2.6.78.78,0,0,0,.4.4,2,2,0,0,0,.8.1,2,2,0,0,0,.7-.1.85.85,0,0,0,.6-.2v2.6a3.59,3.59,0,0,1-1.1.2c-.4,0-.7.1-1.1.1a5.9,5.9,0,0,1-1.4-.2,6.12,6.12,0,0,1-1.2-.5,3.45,3.45,0,0,1-.8-.9,3.19,3.19,0,0,1-.3-1.4V8.1h-2V5.6h2v-3H19v3h2.7V8.1Z" style="fill: #eee"/>
    <path d="M29.6,14.4h0a4.07,4.07,0,0,1-1.4,1.2,5.84,5.84,0,0,1-1.8.4,6.75,6.75,0,0,1-1.4-.2,2.38,2.38,0,0,1-1.1-.6,3.92,3.92,0,0,1-.8-1,2.77,2.77,0,0,1-.3-1.3,3.34,3.34,0,0,1,.3-1.5,2.84,2.84,0,0,1,.9-1,3.1,3.1,0,0,1,1.3-.6,8,8,0,0,1,1.5-.3,7.57,7.57,0,0,1,1.5-.1h1.4a1.49,1.49,0,0,0-.6-1.3,2.39,2.39,0,0,0-1.4-.5,3.19,3.19,0,0,0-1.4.3,3.13,3.13,0,0,0-1.1.9L23.5,7.1a8.17,8.17,0,0,1,2-1.2,6.72,6.72,0,0,1,2.4-.4,6.46,6.46,0,0,1,2.2.3,3,3,0,0,1,1.4,1,2.93,2.93,0,0,1,.7,1.6,13.79,13.79,0,0,1,.2,2.2v5.1H29.5V14.4Zm-.7-3.2H28a3,3,0,0,0-1,.2,2,2,0,0,0-.8.4,1.14,1.14,0,0,0-.3.8.89.89,0,0,0,.5.8,1.69,1.69,0,0,0,1,.3,2.77,2.77,0,0,0,.9-.1,3,3,0,0,0,.8-.4c.2-.2.4-.3.5-.6a1.88,1.88,0,0,0,.2-.8v-.7h-.9Z" style="fill: #eee"/>
    <path d="M37.5,0V6.9h0a2.09,2.09,0,0,1,.4-.6,2.65,2.65,0,0,1,.6-.5,2,2,0,0,1,.8-.4,3.4,3.4,0,0,1,1-.1,3.58,3.58,0,0,1,1.9.4,2.17,2.17,0,0,1,1.1,1,2.46,2.46,0,0,1,.5,1.5,11.48,11.48,0,0,1,.1,1.9v5.5H41V9.8a2.92,2.92,0,0,0-.2-.9,1,1,0,0,0-.5-.6c-.2-.2-.5-.2-.9-.2a3,3,0,0,0-1,.2,1.7,1.7,0,0,0-.6.6,6.89,6.89,0,0,0-.3.8c0,.3-.1.6-.1,1v5H34.3V0Z" style="fill: #eee"/>
  </g>
</svg>
